<?xml version="1.0" encoding="UTF-8" standalone="no"?>
<svg width="124px" height="96px" viewBox="0 0 124 96" version="1.1" xmlns="http://www.w3.org/2000/svg" xmlns:xlink="http://www.w3.org/1999/xlink" xmlns:sketch="http://www.bohemiancoding.com/sketch/ns">
    <title>Untitled 2 1</title>
    <description>Created with Sketch (http://www.bohemiancoding.com/sketch)</description>
    <defs></defs>
    <g id="Page-1" stroke="none" stroke-width="1" fill="none" fill-rule="evenodd" sketch:type="MSPage">
        <rect id="Rectangle-1" fill="#417505" sketch:type="MSShapeGroup" x="0" y="0" width="124" height="96"></rect>
        <rect id="Rectangle-2" fill="#B8E986" sketch:type="MSShapeGroup" x="7" y="6" width="111" height="84"></rect>
        <g id="Oval-1-+-icon_536" sketch:type="MSLayerGroup" transform="translate(12.000000, 18.000000)" fill="#417505">
            <g id="icon_536" sketch:type="MSShapeGroup">
                <g id="Shape">
                    <path d="M80.596,22.157 C78.426,22.157 76.341,22.521 74.391,23.181 C72.879,19.829 71.112,15.907 69.043,11.303 L70.363,7.673 L74.9,7.59 L74.9,3.795 L57.822,3.795 C56.328,5.839 58.427,5.83 65.99,7.507 L64.67,11.22 L30.927,11.22 C33.2,3.281 31.916,3.859 42.147,3.877 L42.147,0 C28.063,0.137 30.505,-1.45 22.963,22.81 C21.809,22.595 20.62,22.477 19.403,22.477 C8.704,22.477 0,31.182 0,41.881 C0,52.58 8.704,61.284 19.403,61.284 C30.103,61.284 38.807,52.58 38.807,41.881 C38.807,33.875 33.932,26.986 26.995,24.026 C27.417,22.698 27.871,21.28 28.358,19.765 C56.744,49.706 46.095,44.852 61.37,45.459 C61.443,45.459 61.513,45.458 61.586,45.457 C63.395,54.296 71.232,60.965 80.596,60.965 C91.296,60.965 100,52.261 100,41.562 C100,30.863 91.296,22.157 80.596,22.157 L80.596,22.157 Z M34.268,41.881 C34.268,50.077 27.6,56.745 19.404,56.745 C11.208,56.745 4.539,50.077 4.539,41.881 C4.539,33.685 11.207,27.017 19.403,27.017 C20.142,27.017 20.868,27.073 21.578,27.178 C16.843,42.11 17.411,40.41 17.382,41.669 C17.359,42.731 18.216,43.573 19.294,43.646 C21.226,43.45 20.791,43.77 25.619,28.385 C30.719,30.741 34.268,35.902 34.268,41.881 L34.268,41.881 Z M53.428,40.956 L29.951,15.372 L62.97,15.313 L53.428,40.956 L53.428,40.956 Z M61.194,41.493 L57.584,41.482 L66.951,16.894 L70.585,24.946 C64.979,28.336 61.219,34.482 61.194,41.493 L61.194,41.493 Z M72.471,29.124 L78.075,41.541 L65.733,41.506 C65.753,36.33 68.432,31.771 72.471,29.124 L72.471,29.124 Z M80.596,56.426 C73.742,56.426 67.958,51.76 66.248,45.438 C81.719,45.453 83.099,46.246 83.315,43.562 C83.294,42.78 83.003,42.244 76.269,27.342 C77.638,26.924 79.091,26.697 80.595,26.697 C88.791,26.697 95.459,33.365 95.459,41.562 C95.459,49.759 88.792,56.426 80.596,56.426 L80.596,56.426 Z"></path>
                </g>
            </g>
        </g>
    </g>
</svg>